<mxfile host="app.diagrams.net" modified="2022-08-28T21:41:03.546Z" agent="5.0 (Windows NT 10.0; Win64; x64) AppleWebKit/537.36 (KHTML, like Gecko) Chrome/104.0.0.0 Safari/537.36" etag="9vojrCPtw3zB184_Z8Z_" version="20.2.5" type="github">
  <diagram id="R64Xe-4D89ugxDravUpu" name="Page-1">
    <mxGraphModel dx="1955" dy="1170" grid="0" gridSize="10" guides="1" tooltips="1" connect="1" arrows="1" fold="1" page="1" pageScale="1" pageWidth="850" pageHeight="1100" math="0" shadow="0">
      <root>
        <mxCell id="0" />
        <mxCell id="1" parent="0" />
        <mxCell id="fUBX8aqbl7yfZjiexXSi-4" value="" style="rounded=0;whiteSpace=wrap;html=1;fontSize=13;fillColor=#e1d5e7;strokeColor=#9673a6;" vertex="1" parent="1">
          <mxGeometry x="560" y="660" width="239.25" height="190" as="geometry" />
        </mxCell>
        <mxCell id="9JFHtYomGAW6HpaSPqKZ-57" value="" style="rounded=0;whiteSpace=wrap;html=1;fontSize=13;fillColor=#d5e8d4;strokeColor=#82b366;" parent="1" vertex="1">
          <mxGeometry x="27.75" y="920" width="771.5" height="200" as="geometry" />
        </mxCell>
        <mxCell id="9JFHtYomGAW6HpaSPqKZ-78" value="" style="rounded=0;whiteSpace=wrap;html=1;fontSize=13;fillColor=none;" parent="1" vertex="1">
          <mxGeometry x="354.75" y="942" width="120" height="60" as="geometry" />
        </mxCell>
        <mxCell id="9JFHtYomGAW6HpaSPqKZ-14" value="&lt;span lang=&quot;EN-GB&quot;&gt;&amp;nbsp;Standard Announcement Service&lt;/span&gt;" style="text;html=1;strokeColor=none;fillColor=none;align=center;verticalAlign=middle;whiteSpace=wrap;rounded=0;" parent="1" vertex="1">
          <mxGeometry x="350.75" y="950" width="124" height="52" as="geometry" />
        </mxCell>
        <mxCell id="9JFHtYomGAW6HpaSPqKZ-119" value="" style="rounded=0;whiteSpace=wrap;html=1;fontSize=13;fillColor=#f8cecc;strokeColor=#b85450;" parent="1" vertex="1">
          <mxGeometry x="600" y="320" width="200" height="260" as="geometry" />
        </mxCell>
        <mxCell id="9JFHtYomGAW6HpaSPqKZ-118" value="" style="rounded=0;whiteSpace=wrap;html=1;fontSize=13;fillColor=#d5e8d4;strokeColor=#82b366;" parent="1" vertex="1">
          <mxGeometry x="30" y="320" width="500" height="530" as="geometry" />
        </mxCell>
        <mxCell id="9JFHtYomGAW6HpaSPqKZ-109" value="" style="rounded=0;whiteSpace=wrap;html=1;fontSize=13;fillColor=none;" parent="1" vertex="1">
          <mxGeometry x="580.13" y="711.5" width="90.75" height="38.5" as="geometry" />
        </mxCell>
        <mxCell id="9JFHtYomGAW6HpaSPqKZ-107" value="" style="rounded=0;whiteSpace=wrap;html=1;fontSize=13;fillColor=none;" parent="1" vertex="1">
          <mxGeometry x="637.5" y="404" width="120" height="60" as="geometry" />
        </mxCell>
        <mxCell id="9JFHtYomGAW6HpaSPqKZ-106" value="" style="rounded=0;whiteSpace=wrap;html=1;fontSize=13;fillColor=none;" parent="1" vertex="1">
          <mxGeometry x="637.5" y="330" width="120" height="60" as="geometry" />
        </mxCell>
        <mxCell id="Upe7RPbjq_lGZQcst3nU-63" value="&lt;span style=&quot;font-size:10.0pt;font-family:&lt;br/&gt;&amp;quot;Arial&amp;quot;,sans-serif;mso-fareast-font-family:&amp;quot;Times New Roman&amp;quot;;mso-ansi-language:&lt;br/&gt;EN-GB;mso-fareast-language:EN-US;mso-bidi-language:AR-SA&quot; lang=&quot;EN-GB&quot;&gt;ReadSpeaker&lt;/span&gt;" style="text;html=1;strokeColor=none;fillColor=none;align=center;verticalAlign=middle;whiteSpace=wrap;rounded=0;" parent="1" vertex="1">
          <mxGeometry x="644.9999999999999" y="335" width="105" height="50" as="geometry" />
        </mxCell>
        <mxCell id="9JFHtYomGAW6HpaSPqKZ-80" value="" style="rounded=0;whiteSpace=wrap;html=1;fontSize=13;fillColor=none;" parent="1" vertex="1">
          <mxGeometry x="653.83" y="942" width="120" height="60" as="geometry" />
        </mxCell>
        <mxCell id="9JFHtYomGAW6HpaSPqKZ-79" value="" style="rounded=0;whiteSpace=wrap;html=1;fontSize=13;fillColor=none;" parent="1" vertex="1">
          <mxGeometry x="503.8299999999999" y="942" width="120" height="60" as="geometry" />
        </mxCell>
        <mxCell id="9JFHtYomGAW6HpaSPqKZ-17" value="&lt;span lang=&quot;EN-GB&quot;&gt;&amp;nbsp;TOC Service&lt;/span&gt;" style="text;html=1;strokeColor=none;fillColor=none;align=center;verticalAlign=middle;whiteSpace=wrap;rounded=0;" parent="1" vertex="1">
          <mxGeometry x="668.83" y="947" width="105" height="50" as="geometry" />
        </mxCell>
        <mxCell id="9JFHtYomGAW6HpaSPqKZ-19" value="&lt;span lang=&quot;EN-GB&quot;&gt;Voice Service&lt;/span&gt;" style="text;html=1;strokeColor=none;fillColor=none;align=center;verticalAlign=middle;whiteSpace=wrap;rounded=0;" parent="1" vertex="1">
          <mxGeometry x="518.83" y="946" width="105" height="50" as="geometry" />
        </mxCell>
        <mxCell id="9JFHtYomGAW6HpaSPqKZ-85" value="" style="rounded=0;whiteSpace=wrap;html=1;fontSize=13;fillColor=none;" parent="1" vertex="1">
          <mxGeometry x="357.5" y="361" width="120" height="60" as="geometry" />
        </mxCell>
        <mxCell id="9JFHtYomGAW6HpaSPqKZ-84" value="" style="rounded=0;whiteSpace=wrap;html=1;fontSize=13;fillColor=none;" parent="1" vertex="1">
          <mxGeometry x="218.5" y="361" width="120" height="60" as="geometry" />
        </mxCell>
        <mxCell id="9JFHtYomGAW6HpaSPqKZ-83" value="" style="rounded=0;whiteSpace=wrap;html=1;fontSize=13;fillColor=none;" parent="1" vertex="1">
          <mxGeometry x="77.75" y="361" width="120" height="60" as="geometry" />
        </mxCell>
        <mxCell id="9JFHtYomGAW6HpaSPqKZ-73" value="" style="rounded=0;whiteSpace=wrap;html=1;fontSize=13;fillColor=none;" parent="1" vertex="1">
          <mxGeometry x="52.25" y="1007" width="120" height="60" as="geometry" />
        </mxCell>
        <mxCell id="9JFHtYomGAW6HpaSPqKZ-77" value="" style="rounded=0;whiteSpace=wrap;html=1;fontSize=13;fillColor=none;" parent="1" vertex="1">
          <mxGeometry x="204.75" y="940" width="120" height="60" as="geometry" />
        </mxCell>
        <mxCell id="fUBX8aqbl7yfZjiexXSi-35" style="edgeStyle=orthogonalEdgeStyle;rounded=0;orthogonalLoop=1;jettySize=auto;html=1;exitX=0.5;exitY=1;exitDx=0;exitDy=0;" edge="1" parent="1" source="Upe7RPbjq_lGZQcst3nU-17">
          <mxGeometry relative="1" as="geometry">
            <mxPoint x="155.0000762939453" y="238.33335876464844" as="targetPoint" />
          </mxGeometry>
        </mxCell>
        <mxCell id="Upe7RPbjq_lGZQcst3nU-17" value="User Desktop&lt;br&gt;&amp;nbsp;Browser" style="text;html=1;strokeColor=none;fillColor=none;align=center;verticalAlign=middle;whiteSpace=wrap;rounded=0;" parent="1" vertex="1">
          <mxGeometry x="160" y="95" width="132.5" height="50" as="geometry" />
        </mxCell>
        <mxCell id="Upe7RPbjq_lGZQcst3nU-23" value="&lt;span lang=&quot;EN-GB&quot;&gt;&amp;nbsp;Announcement Management&lt;/span&gt;" style="text;html=1;strokeColor=none;fillColor=none;align=center;verticalAlign=middle;whiteSpace=wrap;rounded=0;" parent="1" vertex="1">
          <mxGeometry x="75.5" y="361" width="124.5" height="50" as="geometry" />
        </mxCell>
        <mxCell id="Upe7RPbjq_lGZQcst3nU-29" value="&lt;span lang=&quot;EN-GB&quot;&gt;Report Announcement&lt;/span&gt;" style="text;html=1;strokeColor=none;fillColor=none;align=center;verticalAlign=middle;whiteSpace=wrap;rounded=0;" parent="1" vertex="1">
          <mxGeometry x="361" y="366" width="105" height="50" as="geometry" />
        </mxCell>
        <mxCell id="Upe7RPbjq_lGZQcst3nU-31" value="&lt;span lang=&quot;EN-GB&quot;&gt;&amp;nbsp;Banned words Management&lt;/span&gt;" style="text;html=1;strokeColor=none;fillColor=none;align=center;verticalAlign=middle;whiteSpace=wrap;rounded=0;" parent="1" vertex="1">
          <mxGeometry x="78.00000000000003" y="461" width="105" height="50" as="geometry" />
        </mxCell>
        <mxCell id="Upe7RPbjq_lGZQcst3nU-33" value="&lt;span lang=&quot;EN-GB&quot;&gt;Dictionary Management&lt;/span&gt;" style="text;html=1;strokeColor=none;fillColor=none;align=center;verticalAlign=middle;whiteSpace=wrap;rounded=0;" parent="1" vertex="1">
          <mxGeometry x="232.00000000000003" y="464" width="105" height="50" as="geometry" />
        </mxCell>
        <mxCell id="Upe7RPbjq_lGZQcst3nU-42" value="&lt;span lang=&quot;EN-GB&quot;&gt;TOCs Management&lt;/span&gt;" style="text;html=1;strokeColor=none;fillColor=none;align=center;verticalAlign=middle;whiteSpace=wrap;rounded=0;" parent="1" vertex="1">
          <mxGeometry x="361.00000000000006" y="464" width="105" height="50" as="geometry" />
        </mxCell>
        <mxCell id="Upe7RPbjq_lGZQcst3nU-44" value="TOC Data&amp;nbsp; Management" style="text;html=1;strokeColor=none;fillColor=none;align=center;verticalAlign=middle;whiteSpace=wrap;rounded=0;" parent="1" vertex="1">
          <mxGeometry x="75.5" y="558" width="105" height="57" as="geometry" />
        </mxCell>
        <mxCell id="Upe7RPbjq_lGZQcst3nU-46" value="&lt;span lang=&quot;EN-GB&quot;&gt;Voice Management&lt;/span&gt;" style="text;html=1;strokeColor=none;fillColor=none;align=center;verticalAlign=middle;whiteSpace=wrap;rounded=0;" parent="1" vertex="1">
          <mxGeometry x="224.5" y="561.5" width="105" height="50" as="geometry" />
        </mxCell>
        <mxCell id="Upe7RPbjq_lGZQcst3nU-65" value="&lt;span style=&quot;font-size:10.0pt;font-family:&lt;br/&gt;&amp;quot;Arial&amp;quot;,sans-serif;mso-fareast-font-family:&amp;quot;Times New Roman&amp;quot;;mso-ansi-language:&lt;br/&gt;EN-GB;mso-fareast-language:EN-US;mso-bidi-language:AR-SA&quot; lang=&quot;EN-GB&quot;&gt;Spelling/ Profanity&lt;br/&gt;filter&lt;/span&gt;" style="text;html=1;strokeColor=none;fillColor=none;align=center;verticalAlign=middle;whiteSpace=wrap;rounded=0;" parent="1" vertex="1">
          <mxGeometry x="637.5" y="413" width="105" height="50" as="geometry" />
        </mxCell>
        <mxCell id="Upe7RPbjq_lGZQcst3nU-72" value="&lt;span style=&quot;font-size:10.0pt;font-family:&lt;br/&gt;&amp;quot;Arial&amp;quot;,sans-serif;mso-fareast-font-family:&amp;quot;Times New Roman&amp;quot;;mso-ansi-language:&lt;br/&gt;EN-GB;mso-fareast-language:EN-US;mso-bidi-language:AR-SA&quot; lang=&quot;EN-GB&quot;&gt;OTPA AE&lt;/span&gt;" style="text;html=1;strokeColor=none;fillColor=none;align=center;verticalAlign=middle;whiteSpace=wrap;rounded=0;" parent="1" vertex="1">
          <mxGeometry x="581.57" y="719.5" width="77.87" height="20.5" as="geometry" />
        </mxCell>
        <mxCell id="Upe7RPbjq_lGZQcst3nU-77" value="&amp;nbsp;Azure AD" style="text;html=1;strokeColor=none;fillColor=none;align=center;verticalAlign=middle;whiteSpace=wrap;rounded=0;" parent="1" vertex="1">
          <mxGeometry x="642.5" y="490" width="105" height="50" as="geometry" />
        </mxCell>
        <mxCell id="Upe7RPbjq_lGZQcst3nU-79" value="" style="shape=cylinder3;whiteSpace=wrap;html=1;boundedLbl=1;backgroundOutline=1;size=15;strokeWidth=2;fillColor=#d5e8d4;strokeColor=#82b366;" parent="1" vertex="1">
          <mxGeometry x="263" y="1163" width="160" height="100" as="geometry" />
        </mxCell>
        <mxCell id="Upe7RPbjq_lGZQcst3nU-80" value="&lt;br&gt;Oracle&amp;nbsp;" style="text;html=1;strokeColor=none;fillColor=none;align=center;verticalAlign=middle;whiteSpace=wrap;rounded=0;" parent="1" vertex="1">
          <mxGeometry x="300.17" y="1183" width="105" height="50" as="geometry" />
        </mxCell>
        <mxCell id="Upe7RPbjq_lGZQcst3nU-88" value="&lt;span lang=&quot;EN-GB&quot;&gt;Search Train&lt;/span&gt;" style="text;html=1;strokeColor=none;fillColor=none;align=center;verticalAlign=middle;whiteSpace=wrap;rounded=0;" parent="1" vertex="1">
          <mxGeometry x="226.00000000000006" y="366" width="105" height="50" as="geometry" />
        </mxCell>
        <mxCell id="Upe7RPbjq_lGZQcst3nU-91" style="edgeStyle=orthogonalEdgeStyle;rounded=0;orthogonalLoop=1;jettySize=auto;html=1;exitX=0.5;exitY=1;exitDx=0;exitDy=0;fontSize=13;" parent="1" edge="1">
          <mxGeometry relative="1" as="geometry">
            <mxPoint x="695" y="730" as="sourcePoint" />
            <mxPoint x="695" y="730" as="targetPoint" />
          </mxGeometry>
        </mxCell>
        <mxCell id="Upe7RPbjq_lGZQcst3nU-113" value="&lt;span lang=&quot;EN-GB&quot;&gt;&lt;b&gt;&lt;font style=&quot;font-size: 15px;&quot;&gt;OTPA Web UI&lt;/font&gt;&lt;/b&gt;&lt;/span&gt;" style="text;html=1;strokeColor=none;fillColor=none;align=center;verticalAlign=middle;whiteSpace=wrap;rounded=0;" parent="1" vertex="1">
          <mxGeometry x="362.25" y="810" width="150" height="40" as="geometry" />
        </mxCell>
        <mxCell id="9JFHtYomGAW6HpaSPqKZ-9" value="&lt;span lang=&quot;EN-GB&quot;&gt;Information&lt;br&gt;Protection&lt;br&gt;&lt;/span&gt;" style="text;html=1;strokeColor=none;fillColor=none;align=center;verticalAlign=middle;whiteSpace=wrap;rounded=0;" parent="1" vertex="1">
          <mxGeometry x="80.00000000000006" y="655" width="105" height="50" as="geometry" />
        </mxCell>
        <mxCell id="9JFHtYomGAW6HpaSPqKZ-11" value="&lt;span lang=&quot;EN-GB&quot;&gt;Access Token Handler&lt;br&gt;&lt;/span&gt;" style="text;html=1;strokeColor=none;fillColor=none;align=center;verticalAlign=middle;whiteSpace=wrap;rounded=0;" parent="1" vertex="1">
          <mxGeometry x="361" y="571.5" width="120" height="50" as="geometry" />
        </mxCell>
        <mxCell id="9JFHtYomGAW6HpaSPqKZ-15" value="&lt;span lang=&quot;EN-GB&quot;&gt;Banned words Service&lt;/span&gt;" style="text;html=1;strokeColor=none;fillColor=none;align=center;verticalAlign=middle;whiteSpace=wrap;rounded=0;" parent="1" vertex="1">
          <mxGeometry x="59.75" y="1017" width="102" height="50" as="geometry" />
        </mxCell>
        <mxCell id="9JFHtYomGAW6HpaSPqKZ-16" value="&lt;span lang=&quot;EN-GB&quot;&gt;Dictionary Service&lt;/span&gt;" style="text;html=1;strokeColor=none;fillColor=none;align=center;verticalAlign=middle;whiteSpace=wrap;rounded=0;" parent="1" vertex="1">
          <mxGeometry x="212.25" y="942" width="105" height="48" as="geometry" />
        </mxCell>
        <mxCell id="9JFHtYomGAW6HpaSPqKZ-26" value="&lt;span lang=&quot;EN-GB&quot;&gt;&lt;b&gt;&lt;font style=&quot;font-size: 15px;&quot;&gt;OTPA Web App Backend&lt;/font&gt;&lt;/b&gt;&lt;/span&gt;" style="text;html=1;strokeColor=none;fillColor=none;align=center;verticalAlign=middle;whiteSpace=wrap;rounded=0;" parent="1" vertex="1">
          <mxGeometry x="530" y="1077" width="191" height="43" as="geometry" />
        </mxCell>
        <mxCell id="9JFHtYomGAW6HpaSPqKZ-86" value="" style="rounded=0;whiteSpace=wrap;html=1;fontSize=13;fillColor=none;" parent="1" vertex="1">
          <mxGeometry x="75.5" y="459" width="120" height="60" as="geometry" />
        </mxCell>
        <mxCell id="9JFHtYomGAW6HpaSPqKZ-87" value="" style="rounded=0;whiteSpace=wrap;html=1;fontSize=13;fillColor=none;" parent="1" vertex="1">
          <mxGeometry x="217" y="459" width="120" height="60" as="geometry" />
        </mxCell>
        <mxCell id="9JFHtYomGAW6HpaSPqKZ-88" value="" style="rounded=0;whiteSpace=wrap;html=1;fontSize=13;fillColor=none;" parent="1" vertex="1">
          <mxGeometry x="358" y="459" width="120" height="60" as="geometry" />
        </mxCell>
        <mxCell id="9JFHtYomGAW6HpaSPqKZ-90" value="" style="rounded=0;whiteSpace=wrap;html=1;fontSize=13;fillColor=none;" parent="1" vertex="1">
          <mxGeometry x="75.5" y="557" width="120" height="60" as="geometry" />
        </mxCell>
        <mxCell id="9JFHtYomGAW6HpaSPqKZ-92" value="" style="rounded=0;whiteSpace=wrap;html=1;fontSize=13;fillColor=none;" parent="1" vertex="1">
          <mxGeometry x="217" y="559" width="120" height="56" as="geometry" />
        </mxCell>
        <mxCell id="9JFHtYomGAW6HpaSPqKZ-93" value="" style="rounded=0;whiteSpace=wrap;html=1;fontSize=13;fillColor=none;" parent="1" vertex="1">
          <mxGeometry x="358" y="557" width="120" height="60" as="geometry" />
        </mxCell>
        <mxCell id="9JFHtYomGAW6HpaSPqKZ-99" value="Backend Connector" style="rounded=0;whiteSpace=wrap;html=1;fontSize=13;fillColor=none;" parent="1" vertex="1">
          <mxGeometry x="218.5" y="660" width="120" height="60" as="geometry" />
        </mxCell>
        <mxCell id="9JFHtYomGAW6HpaSPqKZ-100" value="" style="rounded=0;whiteSpace=wrap;html=1;fontSize=13;fillColor=none;" parent="1" vertex="1">
          <mxGeometry x="77.75" y="660" width="120" height="60" as="geometry" />
        </mxCell>
        <mxCell id="9JFHtYomGAW6HpaSPqKZ-103" value="External Service Connector" style="rounded=0;whiteSpace=wrap;html=1;fontSize=13;fillColor=none;" parent="1" vertex="1">
          <mxGeometry x="356" y="660" width="120" height="60" as="geometry" />
        </mxCell>
        <mxCell id="9JFHtYomGAW6HpaSPqKZ-105" value="" style="rounded=0;whiteSpace=wrap;html=1;fontSize=13;fillColor=none;" parent="1" vertex="1">
          <mxGeometry x="637.5" y="480" width="120" height="60" as="geometry" />
        </mxCell>
        <mxCell id="9JFHtYomGAW6HpaSPqKZ-120" value="&lt;span lang=&quot;EN-GB&quot;&gt;&lt;b&gt;&lt;font style=&quot;font-size: 15px;&quot;&gt;External Services&lt;/font&gt;&lt;/b&gt;&lt;/span&gt;" style="text;html=1;strokeColor=none;fillColor=none;align=center;verticalAlign=middle;whiteSpace=wrap;rounded=0;" parent="1" vertex="1">
          <mxGeometry x="642.4999999999999" y="540" width="150" height="40" as="geometry" />
        </mxCell>
        <mxCell id="9JFHtYomGAW6HpaSPqKZ-126" value="" style="aspect=fixed;html=1;points=[];align=center;image;fontSize=12;image=img/lib/azure2/general/Browser.svg;fillColor=none;" parent="1" vertex="1">
          <mxGeometry x="280" y="82" width="85" height="68" as="geometry" />
        </mxCell>
        <mxCell id="9JFHtYomGAW6HpaSPqKZ-128" value="" style="outlineConnect=0;dashed=0;verticalLabelPosition=bottom;verticalAlign=top;align=center;html=1;shape=mxgraph.aws3.internet_3;fillColor=#D2D3D3;gradientColor=none;fontSize=13;" parent="1" vertex="1">
          <mxGeometry x="253.5" y="192" width="161.5" height="70" as="geometry" />
        </mxCell>
        <mxCell id="9JFHtYomGAW6HpaSPqKZ-129" value="Internet" style="text;html=1;strokeColor=none;fillColor=none;align=center;verticalAlign=middle;whiteSpace=wrap;rounded=0;" parent="1" vertex="1">
          <mxGeometry x="387.08000000000004" y="190" width="132.5" height="50" as="geometry" />
        </mxCell>
        <mxCell id="9JFHtYomGAW6HpaSPqKZ-130" value="" style="rounded=0;whiteSpace=wrap;html=1;fontSize=13;fillColor=none;" parent="1" vertex="1">
          <mxGeometry x="52.25" y="937" width="120" height="60" as="geometry" />
        </mxCell>
        <mxCell id="9JFHtYomGAW6HpaSPqKZ-131" value="&lt;span lang=&quot;EN-GB&quot;&gt;&amp;nbsp;Announcement Service&lt;/span&gt;" style="text;html=1;strokeColor=none;fillColor=none;align=center;verticalAlign=middle;whiteSpace=wrap;rounded=0;" parent="1" vertex="1">
          <mxGeometry x="48.25" y="945" width="124" height="52" as="geometry" />
        </mxCell>
        <mxCell id="9JFHtYomGAW6HpaSPqKZ-132" value="" style="endArrow=classic;html=1;rounded=0;fontSize=13;" parent="1" edge="1">
          <mxGeometry width="50" height="50" relative="1" as="geometry">
            <mxPoint x="329" y="150" as="sourcePoint" />
            <mxPoint x="329" y="198" as="targetPoint" />
            <Array as="points">
              <mxPoint x="329" y="150" />
            </Array>
          </mxGeometry>
        </mxCell>
        <mxCell id="9JFHtYomGAW6HpaSPqKZ-133" value="" style="endArrow=classic;html=1;rounded=0;fontSize=13;" parent="1" edge="1">
          <mxGeometry width="50" height="50" relative="1" as="geometry">
            <mxPoint x="331" y="263" as="sourcePoint" />
            <mxPoint x="331.3299999999999" y="320" as="targetPoint" />
            <Array as="points">
              <mxPoint x="331.3299999999999" y="320" />
            </Array>
          </mxGeometry>
        </mxCell>
        <mxCell id="9JFHtYomGAW6HpaSPqKZ-140" value="&lt;span lang=&quot;EN-GB&quot;&gt;Report Annoucement Service&lt;/span&gt;" style="text;html=1;strokeColor=none;fillColor=none;align=center;verticalAlign=middle;whiteSpace=wrap;rounded=0;" parent="1" vertex="1">
          <mxGeometry x="200.75" y="1015" width="124" height="52" as="geometry" />
        </mxCell>
        <mxCell id="9JFHtYomGAW6HpaSPqKZ-143" value="" style="rounded=0;whiteSpace=wrap;html=1;fontSize=13;fillColor=none;" parent="1" vertex="1">
          <mxGeometry x="202.74999999999994" y="1011" width="120" height="60" as="geometry" />
        </mxCell>
        <mxCell id="9JFHtYomGAW6HpaSPqKZ-146" value="" style="rounded=0;whiteSpace=wrap;html=1;fontSize=13;fillColor=none;" parent="1" vertex="1">
          <mxGeometry x="75.5" y="740" width="120" height="60" as="geometry" />
        </mxCell>
        <mxCell id="9JFHtYomGAW6HpaSPqKZ-147" value="Location Management" style="text;html=1;strokeColor=none;fillColor=none;align=center;verticalAlign=middle;whiteSpace=wrap;rounded=0;" parent="1" vertex="1">
          <mxGeometry x="77.75" y="750" width="102.25" height="50" as="geometry" />
        </mxCell>
        <mxCell id="9JFHtYomGAW6HpaSPqKZ-148" value="&lt;span style=&quot;font-size:11.0pt;line-height:&lt;br/&gt;120%;font-family:&amp;quot;Arial&amp;quot;,sans-serif;mso-fareast-font-family:Calibri;mso-fareast-theme-font:&lt;br/&gt;minor-latin;mso-ansi-language:EN-GB;mso-fareast-language:EN-US;mso-bidi-language:&lt;br/&gt;AR-SA&quot; lang=&quot;EN-GB&quot;&gt;Overview System&lt;/span&gt;" style="text;html=1;align=center;verticalAlign=middle;resizable=0;points=[];autosize=1;strokeColor=none;fillColor=none;fontSize=13;" parent="1" vertex="1">
          <mxGeometry x="17" y="15" width="120" height="30" as="geometry" />
        </mxCell>
        <mxCell id="fUBX8aqbl7yfZjiexXSi-1" value="Type management" style="rounded=0;whiteSpace=wrap;html=1;fontSize=13;fillColor=none;" vertex="1" parent="1">
          <mxGeometry x="218.5" y="740" width="120" height="60" as="geometry" />
        </mxCell>
        <mxCell id="fUBX8aqbl7yfZjiexXSi-2" value="Standard Announcement Management" style="rounded=0;whiteSpace=wrap;html=1;fontSize=13;fillColor=none;" vertex="1" parent="1">
          <mxGeometry x="358" y="740" width="120" height="60" as="geometry" />
        </mxCell>
        <mxCell id="fUBX8aqbl7yfZjiexXSi-5" value="&lt;span lang=&quot;EN-GB&quot;&gt;&lt;b&gt;&lt;font style=&quot;font-size: 15px;&quot;&gt;Network Rail Service&lt;/font&gt;&lt;/b&gt;&lt;/span&gt;" style="text;html=1;strokeColor=none;fillColor=none;align=center;verticalAlign=middle;whiteSpace=wrap;rounded=0;" vertex="1" parent="1">
          <mxGeometry x="613.33" y="660" width="193.83" height="40" as="geometry" />
        </mxCell>
        <mxCell id="fUBX8aqbl7yfZjiexXSi-9" value="" style="endArrow=classic;html=1;rounded=0;exitX=0.405;exitY=1;exitDx=0;exitDy=0;exitPerimeter=0;" edge="1" parent="1" source="9JFHtYomGAW6HpaSPqKZ-57">
          <mxGeometry width="50" height="50" relative="1" as="geometry">
            <mxPoint x="460" y="1260" as="sourcePoint" />
            <mxPoint x="340" y="1169" as="targetPoint" />
          </mxGeometry>
        </mxCell>
        <mxCell id="fUBX8aqbl7yfZjiexXSi-10" value="" style="endArrow=classic;html=1;rounded=0;entryX=0.424;entryY=0.02;entryDx=0;entryDy=0;entryPerimeter=0;" edge="1" parent="1">
          <mxGeometry width="50" height="50" relative="1" as="geometry">
            <mxPoint x="328" y="850" as="sourcePoint" />
            <mxPoint x="328.45999999999987" y="920" as="targetPoint" />
          </mxGeometry>
        </mxCell>
        <mxCell id="fUBX8aqbl7yfZjiexXSi-12" value="" style="endArrow=classic;startArrow=classic;html=1;rounded=0;entryX=0.5;entryY=1;entryDx=0;entryDy=0;" edge="1" parent="1" target="fUBX8aqbl7yfZjiexXSi-21">
          <mxGeometry width="50" height="50" relative="1" as="geometry">
            <mxPoint x="680" y="920" as="sourcePoint" />
            <mxPoint x="695" y="850" as="targetPoint" />
          </mxGeometry>
        </mxCell>
        <mxCell id="fUBX8aqbl7yfZjiexXSi-13" value="" style="rounded=0;whiteSpace=wrap;html=1;fontSize=13;fillColor=none;" vertex="1" parent="1">
          <mxGeometry x="354.75" y="1012" width="120" height="60" as="geometry" />
        </mxCell>
        <mxCell id="fUBX8aqbl7yfZjiexXSi-14" value="&lt;span lang=&quot;EN-GB&quot;&gt;TOC&#39;s Data Service&lt;/span&gt;" style="text;html=1;strokeColor=none;fillColor=none;align=center;verticalAlign=middle;whiteSpace=wrap;rounded=0;" vertex="1" parent="1">
          <mxGeometry x="362.25" y="1022" width="102" height="50" as="geometry" />
        </mxCell>
        <mxCell id="fUBX8aqbl7yfZjiexXSi-15" value="" style="rounded=0;whiteSpace=wrap;html=1;fontSize=13;fillColor=none;" vertex="1" parent="1">
          <mxGeometry x="503.83000000000004" y="1015" width="120" height="60" as="geometry" />
        </mxCell>
        <mxCell id="fUBX8aqbl7yfZjiexXSi-16" value="&lt;span lang=&quot;EN-GB&quot;&gt;location service&lt;/span&gt;" style="text;html=1;strokeColor=none;fillColor=none;align=center;verticalAlign=middle;whiteSpace=wrap;rounded=0;" vertex="1" parent="1">
          <mxGeometry x="511.33000000000004" y="1025" width="102" height="50" as="geometry" />
        </mxCell>
        <mxCell id="fUBX8aqbl7yfZjiexXSi-17" value="" style="rounded=0;whiteSpace=wrap;html=1;fontSize=13;fillColor=none;" vertex="1" parent="1">
          <mxGeometry x="653.83" y="1017" width="120" height="60" as="geometry" />
        </mxCell>
        <mxCell id="fUBX8aqbl7yfZjiexXSi-18" value="&lt;span lang=&quot;EN-GB&quot;&gt;External Service Connector&lt;/span&gt;" style="text;html=1;strokeColor=none;fillColor=none;align=center;verticalAlign=middle;whiteSpace=wrap;rounded=0;" vertex="1" parent="1">
          <mxGeometry x="661.33" y="1027" width="102" height="50" as="geometry" />
        </mxCell>
        <mxCell id="fUBX8aqbl7yfZjiexXSi-19" value="" style="rounded=0;whiteSpace=wrap;html=1;fontSize=13;fillColor=none;" vertex="1" parent="1">
          <mxGeometry x="690" y="711.5" width="90.75" height="38.5" as="geometry" />
        </mxCell>
        <mxCell id="fUBX8aqbl7yfZjiexXSi-20" value="&lt;span lang=&quot;EN-GB&quot;&gt;Mail Server&lt;/span&gt;" style="text;html=1;strokeColor=none;fillColor=none;align=center;verticalAlign=middle;whiteSpace=wrap;rounded=0;" vertex="1" parent="1">
          <mxGeometry x="691.44" y="719.5" width="77.87" height="20.5" as="geometry" />
        </mxCell>
        <mxCell id="fUBX8aqbl7yfZjiexXSi-21" value="" style="rounded=0;whiteSpace=wrap;html=1;fontSize=13;fillColor=none;" vertex="1" parent="1">
          <mxGeometry x="634.25" y="780" width="90.75" height="38.5" as="geometry" />
        </mxCell>
        <mxCell id="fUBX8aqbl7yfZjiexXSi-22" value="&lt;span lang=&quot;EN-GB&quot;&gt;Train Lineup&lt;/span&gt;" style="text;html=1;strokeColor=none;fillColor=none;align=center;verticalAlign=middle;whiteSpace=wrap;rounded=0;" vertex="1" parent="1">
          <mxGeometry x="635.69" y="788" width="77.87" height="20.5" as="geometry" />
        </mxCell>
        <mxCell id="fUBX8aqbl7yfZjiexXSi-24" value="" style="endArrow=classic;startArrow=classic;html=1;rounded=0;exitX=0.959;exitY=0.007;exitDx=0;exitDy=0;exitPerimeter=0;" edge="1" parent="1" source="9JFHtYomGAW6HpaSPqKZ-57">
          <mxGeometry width="50" height="50" relative="1" as="geometry">
            <mxPoint x="690" y="930" as="sourcePoint" />
            <mxPoint x="768" y="750" as="targetPoint" />
          </mxGeometry>
        </mxCell>
        <mxCell id="fUBX8aqbl7yfZjiexXSi-25" value="" style="endArrow=classic;startArrow=classic;html=1;rounded=0;exitX=0.959;exitY=0.007;exitDx=0;exitDy=0;exitPerimeter=0;" edge="1" parent="1">
          <mxGeometry width="50" height="50" relative="1" as="geometry">
            <mxPoint x="589.9985" y="920.0000000000001" as="sourcePoint" />
            <mxPoint x="590.38" y="748.6" as="targetPoint" />
          </mxGeometry>
        </mxCell>
        <mxCell id="fUBX8aqbl7yfZjiexXSi-26" value="" style="edgeStyle=elbowEdgeStyle;rounded=0;elbow=vertical;html=1;labelBackgroundColor=#ffffff;startArrow=classic;startFill=1;startSize=6;endArrow=classic;endFill=1;endSize=6;jettySize=auto;orthogonalLoop=1;strokeWidth=1;fontSize=14;entryX=1.001;entryY=0.053;entryDx=0;entryDy=0;entryPerimeter=0;" edge="1" parent="1" source="9JFHtYomGAW6HpaSPqKZ-105" target="9JFHtYomGAW6HpaSPqKZ-57">
          <mxGeometry width="60" height="60" relative="1" as="geometry">
            <mxPoint x="570" y="860" as="sourcePoint" />
            <mxPoint x="630" y="800" as="targetPoint" />
            <Array as="points">
              <mxPoint x="820" y="720" />
            </Array>
          </mxGeometry>
        </mxCell>
        <mxCell id="fUBX8aqbl7yfZjiexXSi-27" value="" style="html=1;labelBackgroundColor=#ffffff;startArrow=classic;startFill=1;startSize=6;endArrow=classic;endFill=1;endSize=6;jettySize=auto;orthogonalLoop=1;strokeWidth=1;fontSize=14;rounded=0;" edge="1" parent="1">
          <mxGeometry width="60" height="60" relative="1" as="geometry">
            <mxPoint x="530" y="361" as="sourcePoint" />
            <mxPoint x="635.69" y="361" as="targetPoint" />
          </mxGeometry>
        </mxCell>
        <mxCell id="fUBX8aqbl7yfZjiexXSi-28" value="" style="html=1;labelBackgroundColor=#ffffff;startArrow=classic;startFill=1;startSize=6;endArrow=classic;endFill=1;endSize=6;jettySize=auto;orthogonalLoop=1;strokeWidth=1;fontSize=14;rounded=0;" edge="1" parent="1">
          <mxGeometry width="60" height="60" relative="1" as="geometry">
            <mxPoint x="530" y="433.5" as="sourcePoint" />
            <mxPoint x="635.69" y="433.5" as="targetPoint" />
          </mxGeometry>
        </mxCell>
        <mxCell id="fUBX8aqbl7yfZjiexXSi-29" value="" style="rounded=0;whiteSpace=wrap;html=1;fillColor=#d5e8d4;strokeColor=#82b366;" vertex="1" parent="1">
          <mxGeometry x="480" y="1280" width="80" height="20" as="geometry" />
        </mxCell>
        <mxCell id="fUBX8aqbl7yfZjiexXSi-30" value="OTPA UI" style="text;html=1;align=center;verticalAlign=middle;resizable=0;points=[];autosize=1;strokeColor=none;fillColor=none;" vertex="1" parent="1">
          <mxGeometry x="475" y="1295" width="70" height="30" as="geometry" />
        </mxCell>
        <mxCell id="fUBX8aqbl7yfZjiexXSi-31" value="" style="rounded=0;whiteSpace=wrap;html=1;fillColor=#e1d5e7;strokeColor=#9673a6;" vertex="1" parent="1">
          <mxGeometry x="600" y="1280" width="80" height="20" as="geometry" />
        </mxCell>
        <mxCell id="fUBX8aqbl7yfZjiexXSi-32" value="Network Rail Services" style="text;html=1;align=center;verticalAlign=middle;resizable=0;points=[];autosize=1;strokeColor=none;fillColor=none;" vertex="1" parent="1">
          <mxGeometry x="570" y="1295" width="140" height="30" as="geometry" />
        </mxCell>
        <mxCell id="fUBX8aqbl7yfZjiexXSi-33" value="" style="rounded=0;whiteSpace=wrap;html=1;fillColor=#f8cecc;strokeColor=#b85450;" vertex="1" parent="1">
          <mxGeometry x="719.25" y="1280" width="80" height="20" as="geometry" />
        </mxCell>
        <mxCell id="fUBX8aqbl7yfZjiexXSi-34" value="External Services" style="text;html=1;align=center;verticalAlign=middle;resizable=0;points=[];autosize=1;strokeColor=none;fillColor=none;" vertex="1" parent="1">
          <mxGeometry x="700" y="1295" width="120" height="30" as="geometry" />
        </mxCell>
      </root>
    </mxGraphModel>
  </diagram>
</mxfile>
